<?xml version="1.0" standalone="no"?>
<!DOCTYPE svg PUBLIC "-//W3C//DTD SVG 20010904//EN" "http://www.w3.org/TR/2001/REC-SVG-20010904/DTD/svg10.dtd">
<svg xmlns="http://www.w3.org/2000/svg" version="1.0" width="1080.000000pt" height="1022.000000pt" viewBox="0 0 1080.000000 1022.000000" preserveAspectRatio="xMidYMid meet">
<metadata>
Created by potrace 1.16, written by Peter Selinger 2001-2019
<meta name="Producer" content="Online-Convert"/></metadata>
<g transform="translate(0.000000,1022.000000) scale(0.100000,-0.100000)" fill="#000000" stroke="none">
<path d="M2465 8470 c-105 -28 -237 -73 -355 -120 -103 -41 -320 -147 -370 -180 -14 -9 -72 -47 -130 -85 -333 -216 -649 -533 -871 -875 -207 -318 -377 -758 -434 -1125 -8 -55 -20 -131 -27 -170 -18 -114 -14 -557 6 -715 39 -301 121 -610 216 -817 11 -24 20 -46 20 -49 0 -13 124 -252 173 -334 161 -269 398 -543 649 -749 108 -89 218 -172 259 -196 10 -5 64 -38 121 -71 139 -83 265 -145 414 -205 186 -74 392 -136 419 -125 14 5 14 9 1 33 -12 24 -31 33 -137 66 -844 261 -1464 798 -1818 1573 -195 428 -281 850 -268 1319 12 446 106 834 296 1225 81 166 113 223 206 360 338 499 798 864 1360 1079 91 35 300 101 319 101 18 0 56 43 56 63 0 21 -15 20 -105 -3z"/>
<path d="M3960 8471 c0 -20 44 -61 65 -61 16 0 296 -92 350 -115 147 -63 271 -122 359 -172 79 -45 286 -179 296 -192 3 -3 32 -26 65 -51 123 -92 350 -314 454 -443 117 -147 245 -350 339 -537 182 -365 271 -694 308 -1129 20 -233 25 -214 -79 -270 -66 -35 -79 -37 -97 -16 -11 13 -66 15 -388 15 l-375 0 -136 68 -136 67 517 3 518 2 16 26 c15 21 16 42 10 140 -26 471 -194 964 -460 1354 -65 96 -222 287 -246 300 -33 17 -60 11 -118 -28 -131 -88 -354 -207 -583 -310 -52 -24 -64 -47 -43 -88 8 -14 14 -35 14 -46 0 -10 4 -17 8 -14 5 3 7 18 5 33 -5 28 -1 30 134 93 174 81 332 166 450 242 63 41 97 57 107 51 29 -16 139 -158 230 -296 165 -249 289 -533 361 -822 36 -147 72 -382 77 -500 l3 -70 -537 -3 c-508 -2 -538 -3 -547 -20 -9 -17 -17 -18 -83 -10 -40 5 -83 14 -95 20 -15 8 -82 9 -210 5 -154 -4 -201 -9 -258 -27 -38 -12 -77 -26 -85 -31 -8 -5 -31 -16 -50 -25 -101 -45 -168 -77 -190 -92 -31 -20 -123 -52 -130 -45 -3 2 -5 53 -5 111 l0 107 -111 -2 c-110 -2 -273 -32 -302 -56 -8 -6 -44 -23 -81 -38 -38 -15 -91 -42 -120 -61 l-52 -33 -3 -645 c-2 -355 -3 -652 -3 -660 0 -8 1 -375 3 -815 l2 -800 321 1 c214 0 325 4 332 11 8 8 11 275 12 866 2 670 5 859 15 868 6 7 12 32 12 55 0 70 63 224 136 333 33 50 131 148 189 190 52 38 139 83 209 106 73 25 210 39 246 26 18 -6 57 -11 87 -11 36 0 78 -10 131 -31 118 -47 141 -60 217 -120 149 -118 265 -329 301 -549 21 -126 20 -538 -2 -568 -8 -12 -21 -22 -29 -22 -7 0 -49 23 -91 52 -76 49 -360 208 -374 208 -3 0 -35 14 -70 31 -85 41 -114 43 -118 7 -3 -24 3 -30 55 -53 120 -55 212 -101 332 -170 133 -76 135 -77 198 -118 26 -16 56 -27 78 -27 l35 0 0 -98 0 -98 -92 -81 c-173 -152 -275 -227 -445 -329 -246 -148 -497 -255 -795 -338 -40 -12 -63 -24 -75 -42 -32 -49 18 -49 187 2 445 133 841 355 1155 647 22 21 46 36 53 35 11 -2 14 -80 15 -388 l2 -385 325 0 325 0 6 860 c3 613 8 872 17 900 6 22 34 100 61 173 57 150 103 223 202 318 296 281 756 266 1033 -34 99 -107 172 -245 218 -410 21 -75 22 -95 27 -942 l6 -865 323 -3 c253 -2 323 0 327 10 2 7 5 64 8 127 l4 113 -61 46 c-34 25 -86 75 -116 111 -30 35 -62 72 -70 80 -71 76 -189 315 -220 446 -38 161 -40 225 -40 939 1 384 -3 703 -7 707 -5 5 -103 10 -218 11 l-210 3 2 68 c1 38 7 83 12 100 27 89 63 182 81 207 11 15 20 34 20 42 0 8 5 19 12 26 7 7 9 12 5 12 -11 0 -43 -34 -50 -53 -8 -21 -29 -22 -65 -3 -38 19 -163 61 -247 83 -57 14 -109 18 -275 18 -181 0 -215 -3 -292 -23 -75 -20 -140 -42 -200 -67 -22 -9 -25 6 -33 150 -37 683 -308 1342 -755 1835 -381 422 -845 715 -1376 870 -157 46 -174 48 -174 21z m2016 -3042 c4 -7 -14 -28 -42 -52 -27 -22 -95 -87 -151 -145 l-102 -106 -88 93 c-48 52 -118 118 -156 149 -51 40 -66 57 -56 63 22 14 586 11 595 -2z"/>
<path d="M4090 8226 c0 -38 71 -77 250 -135 47 -16 225 -102 305 -149 136 -79 299 -194 410 -291 56 -49 60 -57 31 -82 -73 -63 -495 -289 -550 -295 -17 -1 -32 -3 -34 -3 -1 -1 4 -14 13 -31 12 -22 23 -30 43 -30 34 0 302 134 440 220 211 132 222 156 120 252 -78 73 -214 176 -338 258 -126 82 -408 219 -544 264 -119 39 -146 43 -146 22z"/>
<path d="M2255 8189 c-153 -55 -388 -174 -525 -265 -128 -85 -341 -253 -365 -287 -39 -55 -2 -104 147 -195 159 -97 363 -202 394 -202 17 0 35 33 25 48 -3 6 -61 38 -126 71 -66 32 -165 87 -220 121 -55 34 -112 69 -127 78 -30 19 -40 34 -30 48 16 22 145 126 237 191 136 96 273 179 375 226 47 21 99 45 115 53 17 7 73 29 125 49 64 23 102 43 117 62 45 55 7 56 -142 2z"/>
<path d="M1160 7432 c-132 -139 -295 -383 -400 -597 -161 -328 -252 -671 -276 -1038 -7 -104 -6 -109 16 -132 l23 -25 539 0 539 0 -3 28 -3 27 -522 5 c-287 3 -524 7 -527 10 -6 7 21 264 39 365 65 358 185 676 366 967 58 94 169 244 232 314 l44 48 99 -64 c103 -67 494 -270 520 -270 16 0 35 39 26 54 -2 5 -56 32 -118 62 -141 66 -315 161 -414 227 -41 27 -89 51 -107 54 -29 5 -38 1 -73 -35z"/>
<path d="M500 5473 c-21 -26 -22 -35 -16 -133 19 -293 95 -624 203 -885 37 -90 149 -308 196 -384 49 -79 201 -281 264 -351 62 -69 76 -68 226 26 67 41 211 119 319 172 108 53 200 104 203 113 6 19 -3 49 -16 49 -41 0 -432 -201 -567 -291 -40 -27 -79 -49 -86 -49 -8 0 -38 30 -69 68 -307 378 -503 815 -576 1287 -35 230 -43 316 -30 331 9 12 99 14 531 14 l519 0 -3 28 -3 27 -537 3 -536 2 -22 -27z"/>
<path d="M1778 3847 c-237 -122 -413 -240 -424 -283 -12 -46 3 -63 178 -211 34 -28 227 -163 234 -163 3 0 24 -13 47 -29 131 -89 593 -279 619 -253 14 14 -7 56 -33 69 -13 6 -78 30 -144 53 -257 89 -573 274 -763 445 -19 16 -40 34 -48 38 -8 4 -14 16 -14 27 0 26 165 133 370 239 147 76 165 89 165 111 0 43 -35 35 -187 -43z"/>
<path d="M4597 3903 c-4 -3 -7 -16 -7 -29 0 -19 20 -33 122 -84 203 -102 388 -221 388 -249 0 -20 -66 -79 -200 -178 -193 -143 -418 -263 -634 -338 -60 -21 -117 -48 -127 -59 -20 -20 -26 -56 -10 -56 17 0 197 59 261 85 149 62 405 201 454 247 11 10 23 18 27 18 10 0 158 116 237 186 62 57 72 70 72 99 0 38 -15 51 -170 155 -97 65 -368 210 -393 210 -8 0 -17 -3 -20 -7z"/>
<path d="M6322 2420 c-65 -14 -141 -60 -178 -108 -51 -67 -67 -128 -62 -236 3 -77 8 -99 32 -143 16 -29 39 -59 51 -67 12 -8 28 -21 36 -29 43 -42 236 -63 319 -34 29 10 34 17 32 37 -5 44 -21 50 -81 34 -116 -30 -230 23 -272 126 -19 47 -17 175 4 221 19 43 74 93 124 114 45 19 123 19 168 1 38 -16 51 -9 57 34 2 19 -4 28 -25 38 -35 17 -149 24 -205 12z"/>
<path d="M8732 2419 c-98 -19 -142 -73 -142 -171 0 -54 3 -60 43 -101 28 -30 62 -52 102 -66 111 -41 154 -112 105 -174 -32 -41 -79 -51 -147 -33 -32 8 -65 17 -74 21 -19 7 -36 -11 -41 -45 -5 -39 47 -59 152 -59 154 -1 230 56 230 173 0 98 -26 128 -166 196 -85 41 -104 61 -104 110 0 61 97 98 174 66 44 -18 61 -11 69 30 3 18 -1 29 -17 38 -28 18 -130 26 -184 15z"/>
<path d="M3501 2406 c-7 -8 -56 -145 -111 -305 -74 -220 -95 -293 -85 -297 7 -3 30 -4 51 -2 l39 3 29 85 c16 47 34 88 40 92 6 4 48 8 93 8 91 0 103 -8 119 -75 4 -16 15 -49 25 -72 18 -41 20 -43 63 -43 25 0 47 4 50 8 3 5 -38 135 -90 288 -53 153 -98 287 -101 296 -8 27 -103 37 -122 14z m94 -239 c18 -52 31 -98 27 -101 -3 -3 -34 -6 -69 -6 -75 0 -75 1 -38 111 35 102 35 103 41 97 3 -3 20 -48 39 -101z"/>
<path d="M3952 2408 c-5 -7 -18 -132 -28 -278 -25 -364 -28 -324 27 -328 l46 -3 6 68 c4 37 9 128 13 201 5 101 10 132 20 132 8 0 14 -6 14 -13 0 -16 108 -344 121 -369 7 -13 22 -18 48 -18 44 0 38 -11 126 235 65 182 66 185 75 180 4 -3 11 -85 14 -182 9 -240 7 -233 61 -233 24 0 46 3 48 8 2 4 0 66 -4 137 -5 72 -12 204 -17 293 -6 117 -12 166 -22 172 -11 7 -55 7 -106 1 -8 -1 -125 -307 -160 -420 -8 -26 -20 1 -89 204 -37 110 -72 206 -78 213 -5 6 -31 12 -57 12 -26 0 -52 -6 -58 -12z"/>
<path d="M4845 2413 c-27 -7 -30 -14 -64 -118 -17 -49 -59 -175 -95 -280 -36 -104 -66 -195 -66 -202 0 -9 16 -13 49 -13 l49 0 28 83 c14 45 31 88 37 95 7 9 36 12 100 10 l91 -3 32 -90 32 -90 51 -3 c61 -4 62 -2 25 101 -14 39 -57 167 -96 282 -39 116 -74 213 -77 217 -9 10 -73 17 -96 11z m74 -245 c16 -51 27 -96 25 -100 -3 -4 -34 -8 -70 -8 -75 0 -75 -1 -39 98 14 38 25 77 25 86 0 9 6 16 14 16 9 0 25 -33 45 -92z"/>
<path d="M5100 2405 c-7 -8 -10 -25 -6 -39 6 -24 10 -25 94 -28 l87 -3 3 -267 2 -268 50 0 50 0 2 268 3 267 90 5 90 5 3 31 c3 26 -1 33 -20 38 -13 3 -116 6 -229 6 -171 0 -209 -3 -219 -15z"/>
<path d="M5647 2414 c-4 -4 -7 -144 -7 -311 l0 -303 180 0 180 0 0 35 0 34 -127 3 -128 3 0 100 0 100 113 3 112 3 0 33 c0 43 -8 46 -131 46 l-99 0 0 90 0 89 123 3 122 3 0 35 0 35 -166 3 c-91 1 -168 -1 -172 -4z"/>
<path d="M6671 2406 c-8 -9 -11 -99 -9 -307 l3 -294 48 -3 47 -3 0 125 c0 68 3 131 6 140 5 13 26 16 128 16 82 0 126 -4 134 -12 8 -8 12 -54 12 -141 l0 -128 48 3 47 3 3 299 c1 208 -1 302 -9 306 -6 4 -27 7 -47 6 l-37 -1 -2 -105 c-4 -165 9 -151 -146 -148 l-132 3 -2 113 c0 62 -4 119 -7 127 -7 19 -70 20 -85 1z"/>
<path d="M7586 2413 c-3 -4 -6 -143 -6 -310 l0 -303 180 0 180 0 0 35 0 35 -114 0 c-63 0 -121 3 -130 6 -14 5 -16 39 -16 270 0 145 -3 264 -7 265 -44 6 -82 7 -87 2z"/>
<path d="M8198 2413 c-10 -3 -22 -19 -27 -36 -5 -18 -50 -151 -100 -297 -49 -146 -86 -269 -82 -273 5 -5 27 -7 51 -5 l42 3 32 90 32 90 92 3 c105 3 99 8 141 -120 l23 -68 49 0 c45 0 54 5 51 30 -1 10 -195 575 -198 579 -6 6 -85 9 -106 4z m81 -238 c17 -49 31 -95 31 -102 0 -9 -20 -13 -70 -13 -38 0 -70 1 -70 3 0 8 59 188 65 197 9 15 9 17 44 -85z"/>
<path d="M9084 2406 c-3 -8 -4 -117 -2 -243 l3 -230 30 -48 c40 -66 80 -87 170 -93 122 -8 188 25 233 118 27 54 27 59 30 277 l3 222 -23 6 c-13 3 -34 4 -48 2 l-25 -4 -5 -214 c-6 -232 -13 -267 -64 -307 -65 -51 -144 -31 -183 48 -22 42 -23 56 -23 256 0 232 2 224 -61 224 -16 0 -32 -6 -35 -14z"/>
</g>
</svg>
